<svg xmlns="http://www.w3.org/2000/svg" width="1024" height="1024" viewBox="0 0 1024 1024" version="1.1">
	<path d="M 466.500 113.581 C 428 123.726, 363.112 140.793, 322.305 151.509 C 281.498 162.225, 246.911 171.539, 245.444 172.207 C 243.166 173.245, 209.943 214.906, 185.001 248 C 181.477 252.675, 163.476 276.075, 144.998 300 C 100.325 357.842, 60.124 410.432, 56.287 416.050 C 52.488 421.612, 51.977 423.898, 54.210 425.337 C 56.497 426.812, 57.448 426.542, 127.500 404.529 C 186.424 386.014, 190 384.639, 190 380.508 C 190 379.810, 188.927 376.372, 187.616 372.869 C 182.893 360.250, 183.254 352.044, 189.194 337 C 202.078 304.370, 237.265 262.863, 273.611 237.422 C 313.807 209.286, 363.011 191.948, 403.500 191.653 C 424.139 191.503, 431.059 193.899, 440.315 204.402 C 447.546 212.608, 449.736 212.944, 455.624 206.750 C 459.128 203.064, 478.873 179.074, 501.509 151 C 505.278 146.325, 514.918 134.929, 522.931 125.675 C 539.894 106.085, 542 103.297, 542 100.433 C 542 98.297, 539.136 94.941, 537.421 95.068 C 536.915 95.105, 505 103.436, 466.500 113.581 M 544 132.959 C 544 135.668, 552.361 159.543, 565.027 193 C 572.627 213.075, 582.223 238.725, 586.351 250 C 597.021 279.138, 599.036 284.338, 600.208 285.750 C 602.239 288.198, 607.196 286.908, 622.084 280.059 C 639.468 272.061, 642 270.568, 642 268.314 C 642 267.411, 637.486 260.660, 631.968 253.312 C 621.054 238.776, 595.421 203.092, 565.132 160.269 C 554.539 145.293, 545.451 132.778, 544.936 132.460 C 544.421 132.142, 544 132.367, 544 132.959 M 385.052 204.624 C 320.445 213.391, 254.050 256.129, 214.566 314.366 C 206.690 325.982, 201.910 335.248, 198.401 345.701 C 194.005 358.794, 193.900 358.427, 215.954 407 C 241.048 462.268, 242.065 464.601, 243.641 470.500 C 244.718 474.531, 244.979 497.740, 244.988 590.316 C 244.996 667.526, 245.339 705.765, 246.035 707.066 C 247.055 708.972, 251.813 709, 575.335 709 C 829.319 709, 903.872 708.728, 904.800 707.800 C 905.725 706.875, 906 663.574, 906 518.982 C 906 355.972, 905.805 330.716, 904.516 326.432 C 902.276 318.991, 896.494 312.073, 889.542 308.518 L 883.642 305.500 698.071 305 C 542.592 304.581, 512.063 304.275, 509.804 303.114 C 508.321 302.352, 495.046 287.297, 480.304 269.658 C 455.257 239.690, 439.388 221.165, 428.909 209.659 C 425.421 205.828, 423.560 204.637, 420 203.952 C 413.409 202.685, 397.015 203, 385.052 204.624 M 416.205 335.421 C 408.351 343.689, 399.125 357.202, 389.522 374.500 C 385.859 381.100, 382.021 387.359, 380.993 388.409 C 379.431 390.006, 376.457 390.533, 362.813 391.627 C 320.194 395.043, 303.705 401.697, 276.266 426.548 L 269 433.128 269 560.442 C 269 672.077, 269.184 687.908, 270.492 688.993 C 272.626 690.765, 878.432 690.716, 880.568 688.944 C 881.801 687.920, 882 662.976, 882 509.401 L 882 331.046 879.620 329.487 C 877.480 328.085, 854.317 327.941, 650.151 328.065 L 423.062 328.203 416.205 335.421 M 386 416.604 C 374.607 419.654, 367.193 424.977, 362.742 433.306 C 360.828 436.886, 360.500 439.037, 360.500 448 C 360.500 457.747, 360.711 458.880, 363.437 463.802 C 368.799 473.480, 378.272 478.584, 397.199 481.992 C 405.391 483.467, 408.994 484.585, 410.688 486.177 C 414.746 489.989, 413.073 495.191, 407.326 496.633 C 402.063 497.954, 388.634 496.299, 379.901 493.253 C 372.148 490.548, 370.994 490.383, 368.171 491.570 C 364.160 493.257, 361.417 497.803, 360.573 504.161 C 359.729 510.521, 361.218 515.107, 364.816 517.233 C 373.877 522.585, 401.319 525.771, 415.062 523.068 C 427.842 520.553, 436.516 514.915, 441.529 505.864 C 444.277 500.903, 444.498 499.748, 444.470 490.500 C 444.445 482.081, 444.082 479.821, 442.177 476.205 C 436.216 464.893, 427.980 459.811, 410.974 456.952 C 404.838 455.921, 398.845 454.781, 397.658 454.420 C 392.055 452.715, 390.320 447.831, 394.102 444.408 C 397.253 441.556, 409.216 441.269, 419.859 443.790 C 424.725 444.942, 429.292 445.482, 430.790 445.081 C 434.491 444.091, 436.948 440.239, 437.648 434.327 C 438.514 427.013, 437.408 422.313, 434.348 420.309 C 427.071 415.540, 398.229 413.330, 386 416.604 M 574.809 417.026 C 568.234 418.135, 564.342 420.740, 562.084 425.545 C 557.741 434.783, 533.795 506.739, 533.285 512.080 C 532.790 517.278, 532.942 517.809, 535.511 519.830 C 537.910 521.717, 539.532 522, 547.944 522 C 554.185 522, 558.171 521.556, 559.176 520.750 C 560.033 520.063, 561.983 516.002, 563.510 511.726 L 566.285 503.953 582.769 504.226 L 599.253 504.500 602.126 512 C 603.706 516.125, 605.760 520.063, 606.690 520.750 C 607.787 521.561, 612.022 522, 618.737 522 C 628.397 522, 629.255 521.835, 631.545 519.545 C 632.895 518.195, 634 515.982, 634 514.627 C 634 511.776, 630.930 501.793, 616.327 457.156 C 607.071 428.863, 605.331 424.398, 602.436 421.503 C 597.455 416.522, 587.431 414.898, 574.809 417.026 M 319.315 418.007 C 318.114 418.491, 316.651 419.783, 316.065 420.878 C 315.355 422.205, 315 438.382, 315 469.378 L 315 515.888 317.413 518.694 C 319.799 521.468, 319.960 521.500, 331.386 521.500 C 342.081 521.500, 343.115 521.330, 345.222 519.222 L 347.500 516.944 347.500 469.386 L 347.500 421.827 344.694 419.413 C 342.112 417.192, 341.077 417.005, 331.694 417.063 C 326.087 417.098, 320.517 417.523, 319.315 418.007 M 460.736 417.651 C 456.192 418.941, 456 421.080, 456 470.395 L 456 516.888 458.415 519.694 L 460.830 522.500 491.335 522.500 L 521.841 522.500 524.363 520.129 C 527.565 517.120, 528.663 509.509, 527.029 501.642 C 525.291 493.266, 524.623 493, 505.314 493 L 489.072 493 488.786 457.035 C 488.524 424.088, 488.350 420.919, 486.717 419.285 C 485.242 417.808, 482.996 417.470, 473.717 417.325 C 467.548 417.229, 461.706 417.376, 460.736 417.651 M 649.139 417.937 C 642.180 419.709, 642.533 417.203, 642.194 467.285 C 641.985 498.311, 642.237 513.691, 642.998 516.295 C 644.415 521.143, 646.661 522, 657.954 522 C 669.618 522, 671.075 520.909, 672.132 511.392 C 672.553 507.602, 672.935 495.500, 672.980 484.500 C 673.077 461.290, 672.207 461.559, 683.284 481.313 C 687.236 488.361, 691.281 494.998, 692.274 496.063 C 694.391 498.336, 702.576 498.767, 705.315 496.750 C 706.248 496.063, 711.005 488.618, 715.885 480.208 L 724.759 464.915 725.232 490.208 C 725.492 504.118, 726.051 516.304, 726.474 517.287 C 727.820 520.417, 732.463 522, 740.301 522 C 748.659 522, 753.582 520.649, 755.021 517.961 C 755.619 516.843, 756 498.012, 756 469.520 L 756 422.909 753.626 420.535 C 750.685 417.594, 744.422 416.548, 734.019 417.261 C 722.105 418.078, 721.591 418.530, 710.749 437.715 C 705.532 446.947, 700.813 455.353, 700.261 456.395 C 699.388 458.045, 698.703 457.332, 694.979 450.895 C 679.356 423.892, 677.054 420.344, 674.327 419.064 C 670.963 417.485, 653.912 416.721, 649.139 417.937 M 580.697 453.204 C 578.068 460.221, 573.600 476.933, 574.194 477.528 C 574.497 477.831, 578.828 477.948, 583.819 477.789 L 592.893 477.500 588.499 464.103 C 586.083 456.734, 583.701 450.301, 583.206 449.806 C 582.674 449.274, 581.650 450.661, 580.697 453.204 M 692.159 544.870 C 677.617 545.467, 676.719 545.623, 674.909 547.861 C 673.813 549.216, 672.999 551.772, 672.999 553.861 C 672.998 555.862, 672.939 577.906, 672.868 602.846 L 672.738 648.193 675.393 650.846 L 678.048 653.500 705.774 653.496 C 732.489 653.492, 733.711 653.406, 739.289 651.159 C 747.836 647.716, 754.372 640.773, 756.963 632.384 C 761.591 617.399, 758.208 605.962, 747.193 599.359 L 741.953 596.218 746.499 593.554 C 748.999 592.088, 752.272 589.035, 753.772 586.768 C 756.177 583.134, 756.500 581.690, 756.500 574.573 C 756.500 567.486, 756.136 565.843, 753.521 561.121 C 747.523 550.291, 736.409 545.108, 718 544.556 C 712.225 544.383, 700.597 544.524, 692.159 544.870 M 461.051 546.381 C 459.704 547.152, 458.273 548.620, 457.871 549.642 C 457.469 550.664, 457.109 573.022, 457.070 599.327 L 457 647.154 459.776 649.930 C 463.151 653.305, 469.325 654.446, 478.753 653.436 C 483.716 652.904, 485.940 652.151, 487.681 650.410 C 489.930 648.161, 490 647.561, 490 630.545 L 490 613 505 613 L 520 613 520.015 630.750 C 520.024 640.513, 520.361 648.995, 520.765 649.600 C 522.611 652.365, 526.812 653.417, 536 653.417 C 546.400 653.417, 549.529 652.368, 551.048 648.374 C 552.291 645.104, 552.313 552.954, 551.071 549.688 C 549.821 546.398, 545.327 545, 536 545 C 526.673 545, 522.179 546.398, 520.929 549.688 C 520.418 551.031, 520 559.301, 520 568.065 L 520 584 505.084 584 L 490.169 584 489.834 567.026 C 489.404 545.187, 489.711 545.616, 474.225 545.239 C 466.454 545.051, 462.825 545.365, 461.051 546.381 M 570.364 546.125 C 566.274 548.191, 565.999 550.638, 566.017 584.797 C 566.031 609.540, 566.389 619.171, 567.489 624.364 C 571.727 644.368, 587.320 654.970, 612.500 654.970 C 638.734 654.970, 654.749 643.310, 658.103 621.767 C 658.641 618.309, 658.950 600.791, 658.790 582.770 C 658.502 550.267, 658.485 550.038, 656.229 547.783 C 654.327 545.883, 652.654 545.454, 645.955 545.150 C 635.953 544.695, 631.547 545.497, 628.996 548.235 C 627.087 550.284, 626.999 551.797, 626.978 582.939 C 626.958 612.464, 626.783 615.880, 625.105 619.576 C 622.095 626.203, 614.168 628.769, 606.546 625.584 C 599.589 622.677, 599.557 622.503, 599 584.323 C 598.390 542.516, 599.644 545.620, 583.225 545.273 C 577.058 545.143, 571.592 545.505, 570.364 546.125 M 704 578.500 L 704 588.199 712.973 587.849 C 723.389 587.444, 725.795 585.949, 726.683 579.327 C 727.119 576.073, 726.763 574.836, 724.695 572.431 C 722.306 569.653, 721.701 569.482, 713.087 569.151 L 704 568.801 704 578.500 M 704 619.406 L 704 629 714.045 629 C 723.506 629, 724.241 628.850, 726.667 626.424 C 728.890 624.201, 729.173 623.226, 728.732 619.312 C 727.893 611.872, 725.783 610.563, 713.974 610.156 L 704 609.813 704 619.406 M 781.619 622.979 C 778.165 624.080, 774.329 627.502, 772.405 631.200 C 770.587 634.695, 770.605 643.118, 772.440 647.510 C 775.095 653.866, 783.838 657.260, 791.961 655.089 C 797.594 653.583, 800.470 650.955, 802.606 645.361 C 805.591 637.547, 803.404 629.630, 796.924 624.793 C 794.052 622.649, 785.744 621.664, 781.619 622.979 M 846.741 623.429 C 841.704 625.227, 840.021 626.756, 837.863 631.500 C 835.421 636.870, 835.540 641.669, 838.250 647.015 C 841.427 653.283, 845.693 655.505, 854.500 655.480 C 858.350 655.469, 862.513 654.891, 863.750 654.195 C 865.791 653.047, 866 652.185, 866 644.917 L 866 636.905 859.750 637.202 C 854.075 637.473, 853.470 637.714, 853.171 639.823 C 852.934 641.493, 853.426 642.299, 854.921 642.690 C 856.293 643.048, 857 644.044, 857 645.617 C 857 647.480, 856.465 648, 854.547 648 C 846.301 648, 842.123 639.457, 847.379 633.345 C 849.478 630.906, 850.597 630.532, 856.847 630.178 C 862.956 629.833, 864.027 629.491, 864.595 627.701 C 866.177 622.716, 855.738 620.219, 846.741 623.429 M 808.667 623.667 C 808.300 624.033, 808 630.693, 808 638.467 C 808 653.354, 808.456 655, 812.578 655 C 815.757 655, 816.842 653.111, 817.190 646.970 L 817.500 641.500 820.352 646.352 C 825.353 654.860, 829.020 656.900, 833.467 653.648 C 835.223 652.363, 835.132 652.053, 831.658 647.504 C 829.646 644.869, 828 642.397, 828 642.011 C 828 641.626, 828.891 640.503, 829.980 639.518 C 834.199 635.700, 833.083 626.720, 828.055 624.030 C 825.944 622.900, 809.737 622.596, 808.667 623.667 M 782.455 632.455 C 778.226 636.683, 779.731 646.392, 784.812 647.668 C 791.162 649.261, 795.605 643.615, 793.911 636.105 C 792.489 629.799, 786.893 628.016, 782.455 632.455 M 817 633.566 C 817 636.837, 817.220 637.107, 819.649 636.816 C 825.195 636.154, 824.950 630, 819.378 630 C 817.319 630, 817 630.478, 817 633.566 M 760.390 648.427 C 760.088 649.212, 759.990 650.900, 760.171 652.177 C 760.427 653.983, 761.225 654.570, 763.757 654.814 C 767.437 655.169, 768.605 653.548, 767.589 649.498 C 767.094 647.526, 766.328 647, 763.950 647 C 762.263 647, 760.696 647.628, 760.390 648.427 M 167.200 719.200 C 164.783 721.617, 166.293 736.542, 169.692 743.824 C 170.636 745.846, 174.129 750.225, 177.454 753.555 C 182.227 758.335, 184.763 760.020, 189.500 761.555 C 195.400 763.468, 201.820 763.500, 576.500 763.500 L 957.500 763.500 963.469 761.096 C 970.639 758.209, 978.494 750.766, 982.038 743.500 C 984.124 739.224, 984.479 737.053, 984.489 728.500 L 984.500 718.500 827.300 718.247 L 670.100 717.994 667.150 722.247 C 662.849 728.447, 659.042 731.721, 654.110 733.461 C 650.336 734.793, 639.837 735, 576.118 735 C 531.398 735, 501.155 734.618, 499.095 734.027 C 493.735 732.490, 489.209 728.926, 485.408 723.250 L 481.893 718 325.147 718 C 204.566 718, 168.123 718.277, 167.200 719.200" stroke="none" fill="#000000" fill-rule="evenodd"/>
</svg>