<svg xmlns="http://www.w3.org/2000/svg" width="1024" height="1024" viewBox="0 0 1024 1024" version="1.1">
	<path d="M 0 512.001 L 0 1024.002 512.250 1023.751 L 1024.500 1023.500 1024.751 511.750 L 1025.002 0 512.501 0 L 0 0 0 512.001 M 0.496 512.500 C 0.496 794.100, 0.610 909.151, 0.750 768.168 C 0.890 627.186, 0.890 396.786, 0.750 256.168 C 0.610 115.551, 0.496 230.900, 0.496 512.500 M 466 113.470 C 427.775 123.558, 362.750 140.660, 321.500 151.475 C 280.250 162.290, 245.560 171.745, 244.411 172.487 C 242.267 173.871, 218.829 203.423, 192.453 238 C 184.272 248.725, 168.530 269.200, 157.470 283.500 C 146.411 297.800, 123.865 327.050, 107.369 348.500 C 51.829 420.720, 50.085 423.177, 53.037 425.044 C 56.444 427.199, 56.257 427.252, 157.772 395.197 C 173.322 390.287, 186.935 385.464, 188.022 384.480 C 190.619 382.130, 190.517 379.612, 187.500 371.596 C 181.248 354.987, 186.892 335.107, 205.864 306.904 C 244.257 249.833, 303.915 209.365, 370.153 195.463 C 386.932 191.941, 411.298 190.976, 422.197 193.400 C 430.650 195.281, 433.721 197.222, 440.078 204.703 C 444.837 210.302, 447.898 211.806, 451.663 210.394 C 453.009 209.889, 467.415 193.139, 484.773 171.898 C 501.673 151.216, 520.900 128.120, 527.500 120.572 C 541.479 104.585, 543.401 101.634, 541.805 98.600 C 540.481 96.082, 539.023 95.014, 537 95.079 C 536.175 95.106, 504.225 103.382, 466 113.470 M 543.794 131.539 C 542.738 132.596, 550.105 154.217, 564.205 191.441 C 571.901 211.758, 582.240 239.433, 587.180 252.941 C 598.277 283.281, 599.778 286.795, 601.942 287.482 C 604.138 288.179, 608.293 286.652, 625 279.012 C 639.289 272.477, 642 270.721, 642 268 C 642 267.070, 638.432 261.570, 634.071 255.777 C 620.912 238.300, 608.148 220.584, 576.233 175.500 C 542.920 128.443, 544.606 130.727, 543.794 131.539 M 383 204.636 C 331.815 212.393, 280.966 239.956, 241 281.607 C 218.051 305.523, 200.873 332.395, 196.537 351.159 C 195.103 357.367, 195.124 358.212, 196.848 363.659 C 197.865 366.871, 208.374 390.875, 220.203 417 C 232.031 443.125, 242.336 466.075, 243.104 468 C 244.265 470.911, 244.546 491.252, 244.774 588.926 C 244.969 672.383, 245.366 706.736, 246.146 707.676 C 247.812 709.683, 903.222 709.642, 904.888 707.635 C 905.725 706.627, 905.952 656.671, 905.760 516.385 L 905.500 326.500 902.534 321.145 C 900.902 318.199, 897.615 314.070, 895.228 311.970 C 886.670 304.436, 902.599 305, 698.290 305 C 544.380 305, 514.419 304.778, 511.718 303.616 C 507.487 301.797, 506.154 300.320, 472.387 260.050 C 433.148 213.253, 425.933 205.353, 421.242 204.050 C 415.984 202.590, 394.310 202.922, 383 204.636 M 416.826 335.207 C 409.256 342.814, 398.401 358.690, 388.343 376.866 C 383.958 384.790, 380.711 389.533, 379.304 390.071 C 378.097 390.532, 370.447 391.398, 362.304 391.995 C 321.666 394.976, 304.870 401.571, 278.250 424.999 L 269 433.139 269 560.447 C 269 669.984, 269.201 687.922, 270.439 688.949 C 272.503 690.662, 878.530 690.635, 880.594 688.922 C 882.719 687.158, 882.705 333.346, 880.579 330.441 C 879.180 328.529, 875.701 328.500, 651.329 328.500 L 423.500 328.500 416.826 335.207 M 392.536 415.113 C 376.116 417.505, 365.513 424.626, 361.520 435.944 C 359.540 441.554, 359.559 454.349, 361.554 460.205 C 365.400 471.492, 376.368 478.430, 395.926 481.946 C 402.210 483.076, 408.390 484.681, 409.660 485.513 C 413.104 487.770, 413.744 491.702, 411.096 494.341 C 409.155 496.275, 407.919 496.488, 399.215 496.384 C 391.119 496.287, 387.963 495.741, 380.278 493.109 C 371.727 490.180, 370.811 490.052, 367.700 491.352 C 362.982 493.323, 360.588 498.666, 360.539 507.336 C 360.491 515.678, 361.580 516.833, 372.844 520.390 C 399.021 528.656, 426.574 524.661, 438.362 510.890 C 442.980 505.495, 445 499.291, 445 490.500 C 445 481.190, 442.849 475.161, 437.343 469.036 C 430.956 461.932, 423.177 458.411, 409.500 456.431 C 396.435 454.539, 392.500 452.690, 392.500 448.444 C 392.500 442.320, 402.797 440.390, 417.792 443.703 C 428.464 446.062, 431.570 445.885, 434.716 442.738 C 436.974 440.481, 437.383 439.084, 437.767 432.316 C 438.152 425.523, 437.940 424.159, 436.145 421.893 C 433.584 418.660, 425.954 416.399, 412.996 415.035 C 402.233 413.901, 400.815 413.907, 392.536 415.113 M 323.612 416.901 C 314.538 418.241, 315 415.442, 315 469.029 C 315 494.773, 315.280 516.565, 315.621 517.455 C 316.872 520.714, 321.515 522, 332.027 522 C 341.886 522, 342.231 521.923, 345.077 519.077 L 348 516.154 348 470.027 C 348 421.105, 347.805 418.947, 343.261 417.632 C 339.758 416.618, 328.391 416.195, 323.612 416.901 M 465.776 416.864 C 455.840 418.002, 456.542 414.232, 456.213 468.285 C 456.055 494.253, 456.184 516.542, 456.499 517.816 C 457.631 522.396, 461.623 523, 490.718 522.994 C 521.372 522.988, 524.471 522.510, 526.580 517.463 C 528.244 513.480, 528.423 505.063, 526.956 499.779 C 525.208 493.485, 523.656 493, 505.277 493 L 489 493 489 457.455 L 489 421.909 486.545 419.455 C 485.120 418.029, 482.919 416.995, 481.295 416.989 C 479.758 416.983, 476.925 416.805, 475 416.593 C 473.075 416.382, 468.924 416.503, 465.776 416.864 M 573.500 416.935 C 568.228 418.219, 564.081 420.942, 562.374 424.243 C 560.385 428.089, 536.853 496.332, 533.959 506.646 C 532.111 513.232, 532.060 514.208, 533.397 517.409 C 534.396 519.800, 535.772 521.181, 537.684 521.714 C 542.342 523.014, 557.549 522.619, 559.315 521.153 C 560.179 520.436, 562.073 516.284, 563.525 511.925 L 566.164 504 582.476 504 L 598.787 504 601.468 510.750 C 602.943 514.462, 604.773 518.470, 605.536 519.656 C 607.326 522.439, 613.081 523.415, 622.505 522.532 C 632.328 521.611, 634.471 519.706, 633.683 512.596 C 633.372 509.793, 626.974 488.850, 619.465 466.056 C 604.494 420.614, 603.929 419.462, 595.453 417.109 C 591.085 415.896, 578.187 415.794, 573.500 416.935 M 647.417 418.024 C 645.654 418.565, 643.835 420.067, 643.167 421.532 C 641.702 424.748, 641.503 513.562, 642.952 517.374 C 644.390 521.155, 647.448 522.229, 657.073 522.333 C 666.097 522.431, 670.192 521.243, 671.635 518.109 C 672.043 517.224, 672.629 504.811, 672.938 490.525 L 673.500 464.550 682.593 480.525 C 691.286 495.796, 691.869 496.559, 695.827 497.840 C 699.517 499.034, 700.376 498.979, 703.707 497.340 C 706.884 495.777, 708.729 493.262, 715.973 480.622 L 724.500 465.743 725 490.667 C 725.652 523.165, 725.291 522.538, 742.942 521.851 C 750.710 521.548, 752.259 521.187, 754.223 519.223 L 756.500 516.946 756.798 472.509 C 757.001 442.259, 756.743 426.759, 755.989 423.960 C 754.372 417.953, 750.748 416.697, 736.356 417.154 C 726.940 417.453, 724.690 417.841, 722.378 419.567 C 720.835 420.719, 715.203 429.404, 709.575 439.312 C 704.048 449.040, 699.296 456.995, 699.013 456.988 C 698.731 456.981, 693.957 449.011, 688.405 439.275 C 682.853 429.539, 677.085 420.660, 675.588 419.542 C 673.284 417.821, 671.154 417.477, 661.683 417.294 C 655.533 417.175, 649.113 417.503, 647.417 418.024 M 580.725 453.750 C 579.342 457.229, 574 476.001, 574 477.385 C 574 477.723, 578.050 478, 583 478 C 589.374 478, 592 477.647, 592 476.790 C 592 474.713, 583.594 450, 582.887 450 C 582.519 450, 581.546 451.688, 580.725 453.750 M 680.673 544.970 C 678.568 545.377, 675.868 546.688, 674.673 547.882 C 672.514 550.040, 672.498 550.350, 672.190 596.777 C 671.855 647.302, 672.076 649.975, 676.788 652.362 C 680.286 654.134, 715.075 655.198, 727 653.897 C 746.955 651.720, 759.010 639.593, 758.994 621.712 C 758.984 609.948, 755.234 603.208, 746.093 598.526 C 741.529 596.189, 741.516 596.168, 744.056 595.185 C 751.786 592.196, 756.942 584.114, 756.978 574.928 C 757.038 559.762, 747.367 549.092, 730.280 545.471 C 723.012 543.931, 687.880 543.576, 680.673 544.970 M 459.455 547.455 L 457 549.909 457 599 L 457 648.091 459.374 650.465 C 463.702 654.793, 481.443 655.298, 486.870 651.249 L 489.500 649.287 489.773 631.143 L 490.045 613 505.023 613 L 520 613 520 630.809 C 520 650.777, 520.234 651.572, 526.527 653.031 C 536.666 655.382, 548.601 653.483, 550.920 649.150 C 551.651 647.784, 552 631.474, 552 598.677 C 552 552.458, 551.912 550.113, 550.088 547.861 C 548.269 545.614, 547.591 545.500, 536 545.500 C 519.414 545.500, 520 544.708, 520 567.111 L 520 584 505 584 L 490 584 490 568.649 C 490 551.867, 489.182 547.859, 485.403 546.138 C 484.030 545.512, 478.182 545, 472.407 545 C 462.594 545, 461.749 545.160, 459.455 547.455 M 568.861 546.911 L 566.500 548.821 566.191 583.161 C 565.983 606.230, 566.260 619.461, 567.035 623.475 C 570.033 638.996, 580.327 649.659, 596.028 653.507 C 604.733 655.640, 624.616 655.154, 632.651 652.611 C 643.222 649.266, 652.196 640.859, 656.482 630.286 C 658.252 625.918, 658.453 622.319, 658.779 589.121 C 659.030 563.500, 658.800 551.931, 658 550.001 C 656.375 546.078, 653.121 545, 642.903 545 C 632.907 545, 628.363 546.557, 627.525 550.268 C 627.249 551.496, 626.904 567.146, 626.761 585.046 C 626.476 620.594, 626.461 620.686, 620.388 624.665 C 617.154 626.784, 609.211 626.983, 605.569 625.035 C 599.749 621.924, 599.547 620.648, 599 583.662 L 598.500 549.824 595.694 547.412 C 593.102 545.184, 592.063 545, 582.055 545 C 572.881 545, 570.860 545.293, 568.861 546.911 M 704 578.500 L 704 588 711.032 588 C 720.555 588, 724.566 586.230, 725.888 581.444 C 726.663 578.637, 726.577 576.924, 725.537 574.434 C 723.889 570.490, 719.733 569.014, 710.250 569.006 L 704 569 704 578.500 M 704 619.500 L 704 629 712.953 629 C 717.877 629, 723.039 628.484, 724.424 627.853 C 727.920 626.260, 729.518 621.099, 727.968 616.403 C 726.386 611.608, 722.383 610, 712.032 610 L 704 610 704 619.500 M 779.405 623.904 C 768.424 628.891, 767.226 645.869, 777.323 653.395 C 781.331 656.383, 792.637 656.408, 796.615 653.438 C 801.510 649.784, 803.344 646.397, 803.793 640.185 C 804.812 626.091, 792.576 617.922, 779.405 623.904 M 811.500 622.817 L 808.500 623.520 808.500 639.010 L 808.500 654.500 812.500 654.500 L 816.500 654.500 817 648.500 L 817.500 642.500 821.500 648.500 C 825.010 653.765, 825.939 654.537, 829.086 654.801 C 835.091 655.304, 835.775 653.084, 831.464 647.083 L 827.817 642.006 830.408 638.926 C 833.926 634.746, 833.868 629.993, 830.250 625.987 C 827.832 623.310, 826.715 622.892, 821 622.529 C 817.425 622.301, 813.150 622.431, 811.500 622.817 M 846.352 623.092 C 842.245 624.282, 837.276 630.014, 836.426 634.542 C 834.938 642.472, 837.305 648.899, 843.385 653.438 C 845.654 655.132, 847.624 655.500, 854.420 655.500 C 865.609 655.500, 866.157 654.975, 865.788 644.596 L 865.500 636.500 859.500 636.500 L 853.500 636.500 853.187 639.750 C 852.925 642.468, 853.211 643, 854.937 643 C 856.498 643, 857 643.640, 857 645.631 C 857 648.096, 856.772 648.225, 853.376 647.674 C 848.987 646.961, 846.317 644.718, 845.515 641.070 C 844.036 634.333, 850.211 629.184, 858.162 630.527 C 860.671 630.951, 862.593 630.752, 863.535 629.971 C 865.619 628.241, 865.350 624.258, 863.066 623.035 C 860.738 621.789, 850.731 621.824, 846.352 623.092 M 784.315 631.007 C 779.434 632.974, 778.350 641.441, 782.455 645.545 C 787.770 650.861, 794 647.368, 794 639.073 C 794 634.940, 793.575 633.811, 791.365 632.073 C 788.495 629.815, 787.608 629.680, 784.315 631.007 M 166.332 719.576 C 166 720.443, 165.965 724.950, 166.254 729.592 C 166.653 735.989, 167.436 739.371, 169.489 743.566 C 173.211 751.176, 180.570 758.281, 187.711 761.164 L 193.500 763.500 572 763.793 C 851.452 764.009, 952.061 763.789, 956.467 762.950 C 967.607 760.829, 976.894 754.009, 981.838 744.318 C 985.442 737.253, 987.279 721.679, 984.800 719.200 C 983.877 718.277, 947.438 718, 826.871 718 L 670.141 718 665.775 723.750 C 663.334 726.964, 659.443 730.603, 656.954 732 L 652.500 734.500 578.199 734.775 C 529.834 734.954, 502.572 734.693, 500.100 734.027 C 494.595 732.545, 490.036 729.142, 485.609 723.212 L 481.719 718 324.328 718 C 181.968 718, 166.879 718.151, 166.332 719.576" stroke="none" fill="#f2f2f2" fill-rule="evenodd"/>
</svg>